<svg width="55" height="53" viewBox="0 0 55 53" fill="none" xmlns="http://www.w3.org/2000/svg">
<path d="M33.7696 46.315V47.8635C33.7696 49.0958 32.8303 50.1209 31.608 50.2954L31.2119 51.7022C30.9969 52.4656 30.284 53 29.4578 53H25.5309C24.7047 53 23.9918 52.4656 23.7768 51.7022L23.392 50.2954C22.1584 50.11 21.2191 49.0958 21.2191 47.8526V46.3041C21.2191 45.4753 21.9095 44.81 22.7696 44.81H32.2192C33.0792 44.8209 33.7696 45.4862 33.7696 46.315ZM41.0463 25.4421C41.0463 28.9646 39.5978 32.1598 37.2438 34.5045C35.4558 36.293 34.3015 38.5722 33.9167 41.0041C33.7469 42.051 32.8076 42.8253 31.6986 42.8253H23.2901C22.1924 42.8253 21.2418 42.0619 21.0833 41.015C20.6873 38.5831 19.5216 36.2712 17.7336 34.4936C15.4249 32.1816 13.9877 29.0409 13.9537 25.5839C13.8745 18.321 19.8724 12.443 27.4095 12.3884C34.9352 12.3339 41.0463 18.201 41.0463 25.4421ZM29.0278 17.5358C29.0278 16.7288 28.3488 16.0635 27.5 16.0635C22.1132 16.0635 17.7222 20.2839 17.7222 25.4858C17.7222 26.2928 18.4012 26.958 19.25 26.958C20.0875 26.958 20.7778 26.3037 20.7778 25.4858C20.7778 21.9088 23.7994 19.008 27.5 19.008C28.3488 19.008 29.0278 18.3537 29.0278 17.5358Z" fill="black"/>
</svg>
