<svg width="51" height="44" viewBox="0 0 51 44" fill="none" xmlns="http://www.w3.org/2000/svg">
<g clipPath="url(#clip0_52_59)">
<path d="M7.2085 6.58624H43.135C47.0449 6.58624 50.2267 9.29409 50.2267 12.6225V31.7514C50.2267 35.0798 47.0449 37.7877 43.135 37.7877H7.2085C3.29856 37.7877 0.116776 35.0798 0.116776 31.7514V12.6225C0.116776 9.29409 3.29856 6.58624 7.2085 6.58624ZM32.0413 16.1891L39.502 22.5384L32.8673 28.1849C32.2938 28.6729 32.2938 29.4642 32.8673 29.9515C33.4399 30.4396 34.3696 30.4396 34.9432 29.9515L42.6162 23.4213C43.1898 22.9333 43.1898 22.1428 42.6162 21.6547L34.1181 14.4224C33.5446 13.9343 32.6148 13.9343 32.0413 14.4224C31.4687 14.9097 31.4687 15.701 32.0413 16.1891ZM19.9317 13.2497L27.6948 31.9563C27.965 32.6077 28.8037 32.9484 29.5681 32.7185C30.3325 32.4886 30.7337 31.7748 30.4636 31.1242L22.7005 12.4176C22.4304 11.767 21.5926 11.4255 20.8272 11.6554C20.0629 11.8853 19.6616 12.5991 19.9317 13.2497ZM7.72722 22.7192L16.2253 29.9515C16.7989 30.4396 17.7286 30.4396 18.3022 29.9515C18.8747 29.4642 18.8747 28.6729 18.3022 28.1849L10.8415 21.8355L17.4761 16.1891C18.0497 15.701 18.0497 14.9097 17.4761 14.4224C16.9036 13.9343 15.9738 13.9343 15.4003 14.4224L7.72722 20.9526C7.15369 21.4406 7.15369 22.2311 7.72722 22.7192Z" fill="black"/>
</g>
<defs>
<rect width="50.1099" height="42.6458" fill="black" transform="matrix(-1 0 0 1 50.2267 0.864014)"/>
</defs>
</svg>
